<mxfile host="app.diagrams.net" modified="2023-10-17T03:29:55.291Z" agent="Mozilla/5.0 (Macintosh; Intel Mac OS X 10_15_7) AppleWebKit/537.36 (KHTML, like Gecko) Chrome/117.0.0.0 Safari/537.36" etag="mURzrNZCVYxgGIDGrerF" version="22.0.4" type="device">
  <diagram name="Page-1" id="_L_qvoIhf0zsfHkWnd_p">
    <mxGraphModel dx="1756" dy="453" grid="1" gridSize="10" guides="1" tooltips="1" connect="1" arrows="1" fold="1" page="1" pageScale="1" pageWidth="850" pageHeight="1100" math="0" shadow="0">
      <root>
        <mxCell id="0" />
        <mxCell id="1" parent="0" />
        <mxCell id="BFuSZP-vXbuZEsM1xbk3-7" value="FlightRadar24&#39;s API:&lt;br&gt;&lt;br&gt;• Flight Data Retrieval&lt;br&gt;&lt;br&gt;• Flight Instance&lt;br&gt;&lt;br&gt;• Flight Details&amp;nbsp;" style="strokeWidth=2;html=1;shape=mxgraph.lean_mapping.manufacturing_process;fontSize=12;verticalAlign=middle;html=1;align=center;whiteSpace=wrap;" parent="1" vertex="1">
          <mxGeometry x="-20" y="65" width="160" height="170" as="geometry" />
        </mxCell>
        <mxCell id="BFuSZP-vXbuZEsM1xbk3-8" value="Input Data Stream" style="text;fontSize=12;spacingLeft=2;verticalAlign=top;html=1;align=center;spacingTop=-5;resizeWidth=1;whiteSpace=wrap;" parent="BFuSZP-vXbuZEsM1xbk3-7" vertex="1">
          <mxGeometry width="160" height="31.571428571428573" as="geometry" />
        </mxCell>
        <mxCell id="BFuSZP-vXbuZEsM1xbk3-15" value="" style="shape=image;html=1;verticalAlign=top;verticalLabelPosition=bottom;labelBackgroundColor=#ffffff;imageAspect=0;aspect=fixed;image=https://cdn4.iconfinder.com/data/icons/aiga-symbol-signs/586/aiga_departingflights_inv-128.png" parent="BFuSZP-vXbuZEsM1xbk3-7" vertex="1">
          <mxGeometry x="65" y="140" width="30" height="30" as="geometry" />
        </mxCell>
        <mxCell id="ySp2FH4lSHeiNTqEhUrP-15" style="edgeStyle=orthogonalEdgeStyle;rounded=0;orthogonalLoop=1;jettySize=auto;html=1;exitX=0.25;exitY=0;exitDx=0;exitDy=0;entryX=0.5;entryY=1;entryDx=0;entryDy=0;" edge="1" parent="1" source="BFuSZP-vXbuZEsM1xbk3-16" target="ySp2FH4lSHeiNTqEhUrP-12">
          <mxGeometry relative="1" as="geometry" />
        </mxCell>
        <mxCell id="BFuSZP-vXbuZEsM1xbk3-16" value="" style="shape=mxgraph.gcp2.doubleRect;strokeColor=#dddddd;shadow=1;strokeWidth=1;rounded=1;absoluteArcSize=1;arcSize=2;" parent="1" vertex="1">
          <mxGeometry x="285" y="235" width="148" height="68" as="geometry" />
        </mxCell>
        <mxCell id="BFuSZP-vXbuZEsM1xbk3-17" value="&lt;font style=&quot;font-size: 10px;&quot;&gt;&lt;font color=&quot;#000000&quot;&gt;Ensign API&lt;/font&gt;&lt;br&gt;Pub/Sub&lt;br&gt;&lt;/font&gt;" style="editableCssRules=.*;html=1;fontColor=#999999;shape=image;verticalLabelPosition=middle;labelBackgroundColor=#ffffff;verticalAlign=middle;labelPosition=right;align=left;spacingLeft=20;part=1;points=[];imageAspect=0;image=data:image/svg+xml,PHN2ZyB4bWxucz0iaHR0cDovL3d3dy53My5vcmcvMjAwMC9zdmciIHhtbG5zOnY9Imh0dHBzOi8vdmVjdGEuaW8vbmFubyIgd2lkdGg9IjIwIiBoZWlnaHQ9IjE2LjAyMDAwMDQ1Nzc2MzY3MiIgZmlsbC1ydWxlPSJldmVub2RkIiB2aWV3Qm94PSI4Ljk0MDY5NjcxNjMwODU5NGUtOCAwIDIwIDE2LjAyMDAwMDQ1Nzc2MzY3MiI+JiN4YTsJPHN0eWxlIHR5cGU9InRleHQvY3NzIj4mI3hhOwkuc3Qwe2ZpbGw6IzQyODVmNDt9JiN4YTsJLnN0MXtmaWxsOiNhZWNiZmE7fSYjeGE7CS5zdDJ7ZmlsbDojNjY5ZGY2O30mI3hhOwk8L3N0eWxlPiYjeGE7CTxwYXRoIGNsYXNzPSJzdDAiIGQ9Ik0xMi4zIDcuMjZsLTEuMjIgMS4yMkExLjcxIDEuNzEgMCAwIDEgMTAgMTEuNDlhMS43NCAxLjc0IDAgMCAxLTEuMzMtLjY0bC0xLjIyIDEuMjJhMy40MyAzLjQzIDAgMCAwIDUuOTg0LTEuMzgxQTMuNDMgMy40MyAwIDAgMCAxMi4zIDcuMjZ6Ii8+JiN4YTsJPHBhdGggY2xhc3M9InN0MSIgZD0iTTEwIDMuNTJhNi4yNSA2LjI1IDAgMCAwIDAgMTIuNSA2LjI1IDYuMjUgMCAwIDAgMC0xMi41bTAgMTAuNzRhNC40NSA0LjQ1IDAgMCAxLTMuMTU3LTcuNTk3QTQuNDUgNC40NSAwIDAgMSAxNC40NCA5LjgyIDQuNDQgNC40NCAwIDAgMSAxMCAxNC4yNiIvPiYjeGE7CTxwYXRoIGNsYXNzPSJzdDIiIGQ9Ik0xOS42MiA5LjE2bC0yLjU2LS44MWE3LjEgNy4xIDAgMCAxIC4xNyAxLjUzIDcuNjIgNy42MiAwIDAgMS0uMDggMS4wOGgyLjQ3YS40NC40NCAwIDAgMCAuMzgtLjQydi0xYS40NC40NCAwIDAgMC0uMzgtLjQyTTEwIDIuNzhhNy40OCA3LjQ4IDAgMCAxIDEuNS4xNUwxMC41OC4zOGMtLjA3LS4yMi0uMjEtLjM4LS40Mi0uMzhoLS4zOGEuNDUuNDUgMCAwIDAtLjQyLjM4bC0uOCAyLjU0QTcuNjQgNy42NCAwIDAgMSAxMCAyLjc4bS03LjIzIDcuMWE3LjEgNy4xIDAgMCAxIC4xNy0xLjUzbC0yLjU2LjgxYS40NC40NCAwIDAgMC0uMzguNDJ2MWEuNDQuNDQgMCAwIDAgLjM4LjQyaDIuNDdhNy42MiA3LjYyIDAgMCAxLS4wOC0xLjA4Ii8+JiN4YTsJPHBhdGggY2xhc3M9InN0MSIgZD0iTTEwIDcuMjZhMi41IDIuNSAwIDEgMCAwIDUgMi41IDIuNSAwIDEgMCAwLTV6bTAgMy43NWExLjI1IDEuMjUgMCAxIDEgMC0yLjUgMS4yNSAxLjI1IDAgMCAxIDEuMjUgMS4yNUExLjI1IDEuMjUgMCAwIDEgMTAgMTEuMDJ6Ii8+JiN4YTs8L3N2Zz4=;" parent="BFuSZP-vXbuZEsM1xbk3-16" vertex="1">
          <mxGeometry width="30" height="24" relative="1" as="geometry">
            <mxPoint x="15" y="18" as="offset" />
          </mxGeometry>
        </mxCell>
        <mxCell id="ySp2FH4lSHeiNTqEhUrP-9" style="edgeStyle=orthogonalEdgeStyle;rounded=0;orthogonalLoop=1;jettySize=auto;html=1;exitX=1;exitY=0.5;exitDx=0;exitDy=0;" edge="1" parent="1" source="BFuSZP-vXbuZEsM1xbk3-22">
          <mxGeometry relative="1" as="geometry">
            <mxPoint x="330" y="140" as="targetPoint" />
          </mxGeometry>
        </mxCell>
        <mxCell id="BFuSZP-vXbuZEsM1xbk3-22" value="Preprocessing" style="strokeWidth=2;html=1;shape=mxgraph.lean_mapping.manufacturing_process;fontSize=12;verticalAlign=middle;html=1;align=center;whiteSpace=wrap;" parent="1" vertex="1">
          <mxGeometry x="178" y="110" width="112" height="60" as="geometry" />
        </mxCell>
        <mxCell id="BFuSZP-vXbuZEsM1xbk3-23" value="Data" style="text;fontSize=12;spacingLeft=2;verticalAlign=top;html=1;align=center;spacingTop=-5;resizeWidth=1;whiteSpace=wrap;" parent="BFuSZP-vXbuZEsM1xbk3-22" vertex="1">
          <mxGeometry width="112" height="11.14285714285714" as="geometry" />
        </mxCell>
        <mxCell id="ySp2FH4lSHeiNTqEhUrP-13" style="edgeStyle=orthogonalEdgeStyle;rounded=0;orthogonalLoop=1;jettySize=auto;html=1;exitX=0.5;exitY=1;exitDx=0;exitDy=0;entryX=0.5;entryY=0;entryDx=0;entryDy=0;" edge="1" parent="1" source="BFuSZP-vXbuZEsM1xbk3-26" target="ySp2FH4lSHeiNTqEhUrP-11">
          <mxGeometry relative="1" as="geometry" />
        </mxCell>
        <mxCell id="BFuSZP-vXbuZEsM1xbk3-26" value="&lt;font style=&quot;font-size: 6px;&quot;&gt;Machine Learning Model&lt;/font&gt;" style="swimlane;whiteSpace=wrap;html=1;startSize=23;" parent="1" vertex="1">
          <mxGeometry x="330" y="90" width="90" height="80" as="geometry">
            <mxRectangle x="320" y="230" width="130" height="30" as="alternateBounds" />
          </mxGeometry>
        </mxCell>
        <mxCell id="BFuSZP-vXbuZEsM1xbk3-27" value="" style="sketch=0;points=[[0,0,0],[0.25,0,0],[0.5,0,0],[0.75,0,0],[1,0,0],[0,1,0],[0.25,1,0],[0.5,1,0],[0.75,1,0],[1,1,0],[0,0.25,0],[0,0.5,0],[0,0.75,0],[1,0.25,0],[1,0.5,0],[1,0.75,0]];outlineConnect=0;fontColor=#232F3E;fillColor=#01A88D;strokeColor=#ffffff;dashed=0;verticalLabelPosition=bottom;verticalAlign=top;align=center;html=1;fontSize=12;fontStyle=0;aspect=fixed;shape=mxgraph.aws4.resourceIcon;resIcon=mxgraph.aws4.machine_learning;" parent="BFuSZP-vXbuZEsM1xbk3-26" vertex="1">
          <mxGeometry x="26" y="32" width="38" height="38" as="geometry" />
        </mxCell>
        <mxCell id="BFuSZP-vXbuZEsM1xbk3-47" style="edgeStyle=orthogonalEdgeStyle;rounded=0;orthogonalLoop=1;jettySize=auto;html=1;entryX=0;entryY=0.5;entryDx=0;entryDy=0;exitX=1;exitY=0.5;exitDx=0;exitDy=0;exitPerimeter=0;" parent="1" source="BFuSZP-vXbuZEsM1xbk3-37" target="BFuSZP-vXbuZEsM1xbk3-40" edge="1">
          <mxGeometry relative="1" as="geometry">
            <mxPoint x="560" y="155" as="sourcePoint" />
          </mxGeometry>
        </mxCell>
        <mxCell id="ySp2FH4lSHeiNTqEhUrP-18" style="edgeStyle=orthogonalEdgeStyle;rounded=0;orthogonalLoop=1;jettySize=auto;html=1;exitX=1;exitY=0.5;exitDx=0;exitDy=0;exitPerimeter=0;entryX=0;entryY=0.75;entryDx=0;entryDy=0;" edge="1" parent="1" source="BFuSZP-vXbuZEsM1xbk3-37" target="BFuSZP-vXbuZEsM1xbk3-44">
          <mxGeometry relative="1" as="geometry" />
        </mxCell>
        <mxCell id="BFuSZP-vXbuZEsM1xbk3-37" value="Real-time Prediction" style="html=1;whiteSpace=wrap;strokeColor=none;fillColor=#0079D6;labelPosition=center;verticalLabelPosition=middle;verticalAlign=top;align=center;fontSize=12;outlineConnect=0;spacingTop=-6;fontColor=#FFFFFF;sketch=0;shape=mxgraph.sitemap.products;" parent="1" vertex="1">
          <mxGeometry x="450" y="100" width="120" height="70" as="geometry" />
        </mxCell>
        <mxCell id="BFuSZP-vXbuZEsM1xbk3-40" value="Confidence Interval" style="swimlane;whiteSpace=wrap;html=1;" parent="1" vertex="1">
          <mxGeometry x="660" y="40" width="120" height="80" as="geometry" />
        </mxCell>
        <mxCell id="BFuSZP-vXbuZEsM1xbk3-46" value="" style="sketch=0;points=[[0,0,0],[0.25,0,0],[0.5,0,0],[0.75,0,0],[1,0,0],[0,1,0],[0.25,1,0],[0.5,1,0],[0.75,1,0],[1,1,0],[0,0.25,0],[0,0.5,0],[0,0.75,0],[1,0.25,0],[1,0.5,0],[1,0.75,0]];outlineConnect=0;fontColor=#232F3E;fillColor=#7AA116;strokeColor=#ffffff;dashed=0;verticalLabelPosition=bottom;verticalAlign=top;align=center;html=1;fontSize=12;fontStyle=0;aspect=fixed;shape=mxgraph.aws4.resourceIcon;resIcon=mxgraph.aws4.iot_things_graph;" parent="BFuSZP-vXbuZEsM1xbk3-40" vertex="1">
          <mxGeometry x="41.539999999999964" y="30" width="40" height="40" as="geometry" />
        </mxCell>
        <mxCell id="BFuSZP-vXbuZEsM1xbk3-44" value="Alerts + Notifs" style="swimlane;whiteSpace=wrap;html=1;" parent="1" vertex="1">
          <mxGeometry x="660" y="160" width="120" height="80" as="geometry" />
        </mxCell>
        <mxCell id="BFuSZP-vXbuZEsM1xbk3-45" value="" style="image;aspect=fixed;html=1;points=[];align=center;fontSize=12;image=img/lib/azure2/management_governance/Alerts.svg;" parent="BFuSZP-vXbuZEsM1xbk3-44" vertex="1">
          <mxGeometry x="38.47000000000003" y="34" width="43.07" height="36" as="geometry" />
        </mxCell>
        <mxCell id="ySp2FH4lSHeiNTqEhUrP-5" style="edgeStyle=orthogonalEdgeStyle;rounded=0;orthogonalLoop=1;jettySize=auto;html=1;entryX=-0.004;entryY=0.63;entryDx=0;entryDy=0;entryPerimeter=0;" edge="1" parent="1" source="BFuSZP-vXbuZEsM1xbk3-7" target="BFuSZP-vXbuZEsM1xbk3-22">
          <mxGeometry relative="1" as="geometry" />
        </mxCell>
        <mxCell id="ySp2FH4lSHeiNTqEhUrP-14" style="edgeStyle=orthogonalEdgeStyle;rounded=0;orthogonalLoop=1;jettySize=auto;html=1;exitX=0.5;exitY=1;exitDx=0;exitDy=0;entryX=0.75;entryY=0;entryDx=0;entryDy=0;" edge="1" parent="1" source="ySp2FH4lSHeiNTqEhUrP-11" target="BFuSZP-vXbuZEsM1xbk3-16">
          <mxGeometry relative="1" as="geometry" />
        </mxCell>
        <mxCell id="ySp2FH4lSHeiNTqEhUrP-11" value="&lt;font style=&quot;font-size: 6px;&quot;&gt;Re-train and store&lt;/font&gt;" style="rounded=0;whiteSpace=wrap;html=1;" vertex="1" parent="1">
          <mxGeometry x="390" y="200" width="60" height="20" as="geometry" />
        </mxCell>
        <mxCell id="ySp2FH4lSHeiNTqEhUrP-16" style="edgeStyle=orthogonalEdgeStyle;rounded=0;orthogonalLoop=1;jettySize=auto;html=1;exitX=0.5;exitY=0;exitDx=0;exitDy=0;entryX=0.25;entryY=1;entryDx=0;entryDy=0;" edge="1" parent="1" source="ySp2FH4lSHeiNTqEhUrP-12" target="BFuSZP-vXbuZEsM1xbk3-26">
          <mxGeometry relative="1" as="geometry" />
        </mxCell>
        <mxCell id="ySp2FH4lSHeiNTqEhUrP-12" value="&lt;font style=&quot;font-size: 6px;&quot;&gt;Fetch&lt;/font&gt;" style="rounded=0;whiteSpace=wrap;html=1;" vertex="1" parent="1">
          <mxGeometry x="285" y="200" width="60" height="20" as="geometry" />
        </mxCell>
        <mxCell id="ySp2FH4lSHeiNTqEhUrP-17" style="edgeStyle=orthogonalEdgeStyle;rounded=0;orthogonalLoop=1;jettySize=auto;html=1;entryX=0;entryY=0.5;entryDx=0;entryDy=0;entryPerimeter=0;" edge="1" parent="1" source="BFuSZP-vXbuZEsM1xbk3-26" target="BFuSZP-vXbuZEsM1xbk3-37">
          <mxGeometry relative="1" as="geometry" />
        </mxCell>
        <mxCell id="ySp2FH4lSHeiNTqEhUrP-19" style="edgeStyle=orthogonalEdgeStyle;rounded=0;orthogonalLoop=1;jettySize=auto;html=1;exitX=0.5;exitY=1;exitDx=0;exitDy=0;entryX=0.361;entryY=1.002;entryDx=0;entryDy=0;entryPerimeter=0;" edge="1" parent="1" source="BFuSZP-vXbuZEsM1xbk3-16" target="BFuSZP-vXbuZEsM1xbk3-7">
          <mxGeometry relative="1" as="geometry" />
        </mxCell>
      </root>
    </mxGraphModel>
  </diagram>
</mxfile>
